<?xml version="1.0" encoding="UTF-8" standalone="no"?>
<!-- Created with Inkscape (http://www.inkscape.org/) -->

<svg
   width="400"
   height="400"
   viewBox="0 0 400 400"
   version="1.1"
   id="svg5"
   xml:space="preserve"
   inkscape:version="1.2.1 (9c6d41e410, 2022-07-14)"
   sodipodi:docname="Logo.svg"
   xmlns:inkscape="http://www.inkscape.org/namespaces/inkscape"
   xmlns:sodipodi="http://sodipodi.sourceforge.net/DTD/sodipodi-0.dtd"
   xmlns="http://www.w3.org/2000/svg"
   xmlns:svg="http://www.w3.org/2000/svg">
  <sodipodi:namedview
   id="namedview7"
   pagecolor="#505050"
   bordercolor="#eeeeee"
   borderopacity="1"
   inkscape:showpageshadow="0"
   inkscape:pageopacity="0"
   inkscape:pagecheckerboard="0"
   inkscape:deskcolor="#505050"
   inkscape:document-units="px"
   showgrid="false"
   inkscape:zoom="1.03625"
   inkscape:cx="314.5959"
   inkscape:cy="231.60434"
   inkscape:window-width="1920"
   inkscape:window-height="1009"
   inkscape:window-x="-8"
   inkscape:window-y="-8"
   inkscape:window-maximized="1"
   inkscape:current-layer="layer1">
    <sodipodi:guide
   position="0.48250905,399.51749"
   orientation="399.39685,0"
   id="guide3874"
   inkscape:locked="false" />
    <sodipodi:guide
   position="0.48250905,0.12063599"
   orientation="0,399.39685"
   id="guide3876"
   inkscape:locked="false" />
    <sodipodi:guide
   position="399.87936,0.12063599"
   orientation="-399.39685,0"
   id="guide3878"
   inkscape:locked="false" />
    <sodipodi:guide
   position="399.87936,399.51749"
   orientation="0,-399.39685"
   id="guide3880"
   inkscape:locked="false" />
    <sodipodi:guide
   position="0,400"
   orientation="200,0"
   id="guide3884"
   inkscape:locked="false" />
    <sodipodi:guide
   position="0,200"
   orientation="0,200"
   id="guide3886"
   inkscape:locked="false" />
  </sodipodi:namedview>
  <defs
   id="defs2"><inkscape:path-effect
     effect="spiro"
     id="path-effect3860"
     is_visible="true"
     lpeversion="1" /><inkscape:path-effect
     effect="spiro"
     id="path-effect3856"
     is_visible="true"
     lpeversion="1" /><inkscape:path-effect
     effect="spiro"
     id="path-effect3852"
     is_visible="true"
     lpeversion="1" /><inkscape:path-effect
     effect="spiro"
     id="path-effect3848"
     is_visible="true"
     lpeversion="1" /></defs>
  <g
   inkscape:label="Layer 1"
   inkscape:groupmode="layer"
   id="layer1">
    <g
   style="fill:#216b2f;fill-opacity:1"
   id="g239"
   transform="matrix(10.669743,0,0,10.669743,114.44229,254.28152)">
      <path
   d="m 11.5,6.027 a 0.5,0.5 0 1 1 -1,0 0.5,0.5 0 0 1 1,0 z m -1.5,1.5 a 0.5,0.5 0 1 0 0,-1 0.5,0.5 0 0 0 0,1 z m 2.5,-0.5 a 0.5,0.5 0 1 1 -1,0 0.5,0.5 0 0 1 1,0 z m -1.5,1.5 a 0.5,0.5 0 1 0 0,-1 0.5,0.5 0 0 0 0,1 z m -6.5,-3 h 1 v 1 h 1 v 1 h -1 v 1 h -1 v -1 h -1 v -1 h 1 z"
   id="path227"
   style="fill:#216b2f;fill-opacity:1" />
      <path
   d="M 3.051,3.26 A 0.5,0.5 0 0 1 3.405,2.647 L 5.337,2.129 a 0.5,0.5 0 0 1 0.62,0.39 C 6.612,2.44 7.307,2.402 8,2.402 c 0.72,0 1.443,0.041 2.12,0.126 a 0.5,0.5 0 0 1 0.622,-0.399 l 1.932,0.518 a 0.5,0.5 0 0 1 0.306,0.729 c 0.14,0.09 0.266,0.19 0.373,0.297 0.408,0.408 0.78,1.05 1.095,1.772 0.32,0.733 0.599,1.591 0.805,2.466 0.206,0.875 0.34,1.78 0.364,2.606 0.024,0.816 -0.059,1.602 -0.328,2.21 a 1.42,1.42 0 0 1 -1.445,0.83 C 13.208,13.49 12.729,13.163 12.331,12.784 12.086,12.552 11.835,12.258 11.592,11.976 11.466,11.828 11.342,11.684 11.224,11.553 10.496,10.749 9.627,10.026 8,10.026 c -1.627,0 -2.496,0.723 -3.224,1.527 -0.119,0.131 -0.242,0.275 -0.368,0.423 -0.243,0.282 -0.494,0.575 -0.739,0.808 -0.398,0.38 -0.877,0.706 -1.513,0.773 A 1.42,1.42 0 0 1 0.711,12.727 C 0.441,12.119 0.359,11.332 0.382,10.517 0.406,9.691 0.542,8.787 0.747,7.911 0.953,7.036 1.233,6.178 1.552,5.445 1.867,4.723 2.239,4.081 2.646,3.673 A 2.34,2.34 0 0 1 3.079,3.338 0.504,0.504 0 0 1 3.051,3.259 Z M 5.087,3.672 C 4.21,3.857 3.618,4.115 3.354,4.38 3.078,4.656 2.767,5.163 2.469,5.845 A 13.748,13.748 0 0 0 1.721,8.14 12.351,12.351 0 0 0 1.382,10.546 c -0.022,0.755 0.062,1.368 0.243,1.776 a 0.42,0.42 0 0 0 0.426,0.24 C 2.378,12.528 2.661,12.363 2.98,12.06 3.192,11.858 3.38,11.637 3.595,11.386 3.728,11.23 3.871,11.063 4.035,10.882 4.861,9.969 5.978,9.027 8,9.027 c 2.022,0 3.139,0.942 3.965,1.855 0.164,0.181 0.307,0.348 0.44,0.504 0.214,0.251 0.403,0.472 0.615,0.674 0.318,0.303 0.601,0.468 0.929,0.503 a 0.42,0.42 0 0 0 0.426,-0.241 c 0.18,-0.408 0.265,-1.02 0.243,-1.776 A 12.354,12.354 0 0 0 14.279,8.14 13.753,13.753 0 0 0 13.531,5.845 C 13.233,5.163 12.921,4.655 12.646,4.38 12.382,4.115 11.79,3.857 10.913,3.672 10.063,3.493 9.036,3.402 8,3.402 c -1.036,0 -2.063,0.091 -2.913,0.27 z"
   id="path229"
   style="fill:#216b2f;fill-opacity:1" />
    </g>
    <path
   style="fill:#6b2934;fill-opacity:1"
   d="M 0,0 399.18694,399.18694"
   id="path3846"
   inkscape:path-effect="#path-effect3848"
   inkscape:original-d="M 0,0 C 132.83586,133.29077 266.12563,266.12563 399.18694,399.18694" />
    <path
   style="fill:#6b2934;fill-opacity:1"
   d="M 43.671734,174.68693 353.46809,168.5456"
   id="path3850"
   inkscape:path-effect="#path-effect3852"
   inkscape:original-d="M 43.671734,174.68693 C 146.93819,172.86828 250.20364,170.59371 353.46809,168.5456" />
    <path
   style="fill:#6b2934;fill-opacity:1"
   d="M 398.50457,399.86931 0,1.3647417"
   id="path3854"
   inkscape:path-effect="#path-effect3856"
   inkscape:original-d="M 398.50457,399.86931 C 265.67071,267.03545 132.83586,134.2006 0,1.3647417" />
    <path
   style="fill:#6b2934;fill-opacity:1"
   d="M 440.81156,223.13526 137.83891,193.11095"
   id="path3858"
   inkscape:path-effect="#path-effect3860"
   inkscape:original-d="M 440.81156,223.13526 C 339.82168,213.12816 238.83079,203.12005 137.83891,193.11095" />
    <path
   style="fill:#6b2934;fill-opacity:1"
   d="M -0.68237084,-1.3647417 399.86931,400.55168 Z"
   id="path3862" />
    
    <g
   style="fill:#6b2934;fill-opacity:1"
   id="g3900"
   transform="matrix(17.164053,0,0,17.164053,71.168204,2.3375737)">
      <path
   fill-rule="evenodd"
   d="M 8,5 A 0.5,0.5 0 0 1 8.5,5.5 V 9.293 L 9.646,8.146 a 0.5006316,0.5006316 0 0 1 0.708,0.708 l -2,2 a 0.5,0.5 0 0 1 -0.708,0 l -2,-2 A 0.5006316,0.5006316 0 1 1 6.354,8.146 L 7.5,9.293 V 5.5 A 0.5,0.5 0 0 1 8,5 Z"
   id="path3894"
   style="fill:#6b2934;fill-opacity:1" />
      <path
   d="m 3,0 h 10 a 2,2 0 0 1 2,2 v 12 a 2,2 0 0 1 -2,2 H 3 A 2,2 0 0 1 1,14 v -1 h 1 v 1 a 1,1 0 0 0 1,1 h 10 a 1,1 0 0 0 1,-1 V 2 A 1,1 0 0 0 13,1 H 3 A 1,1 0 0 0 2,2 V 3 H 1 V 2 A 2,2 0 0 1 3,0 Z"
   id="path3896"
   style="fill:#6b2934;fill-opacity:1" />
      <path
   d="M 1,5 V 4.5 a 0.5,0.5 0 0 1 1,0 V 5 h 0.5 a 0.5,0.5 0 0 1 0,1 h -2 a 0.5,0.5 0 0 1 0,-1 z M 1,8 V 7.5 a 0.5,0.5 0 0 1 1,0 V 8 h 0.5 a 0.5,0.5 0 0 1 0,1 h -2 a 0.5,0.5 0 0 1 0,-1 z m 0,3 v -0.5 a 0.5,0.5 0 0 1 1,0 V 11 h 0.5 a 0.5,0.5 0 0 1 0,1 h -2 a 0.5,0.5 0 0 1 0,-1 z"
   id="path3898"
   style="fill:#6b2934;fill-opacity:1" />
    </g>
  </g>
</svg>
